<svg xmlns="http://www.w3.org/2000/svg" viewBox="0 0 301 301"><defs><style>.cls-1{fill:#f4f4f4;}.cls-2{fill:#eb1f26;}.cls-2,.cls-3{stroke:#fff;stroke-miterlimit:10;}.cls-3{fill:#62893c;}</style></defs><title>Asset 8</title><g id="Layer_2" data-name="Layer 2"><g id="Layer_1-2" data-name="Layer 1"><circle class="cls-1" cx="150.5" cy="150.5" r="150.5"/><path class="cls-2" d="M182.07,133.79c-3.27-1.59-6.77-1.11-10.27-2-5.31-1.41-6.35-4.07-9.82-5.63-10.59-4.78-20.57,1.48-25.8,10.84-5.66,10.14-4.3,22.38-7.57,33.34-2.29,7.67-5,15.7-9.67,22.46a37.81,37.81,0,0,1-8.75,9.14c-2.13,1.57-8.69,4-8.31,7.37.46,4,11.47,6.2,18.37,6.76,18.7,1.51,33.53-6.87,38.81-9.94,22.23-12.92,31.48-32.34,34.27-41.58,2.25-7.41,1.86-15.63-2.35-22.29a24.27,24.27,0,0,0-8.43-8.18Z"/><path class="cls-3" d="M198,151.49c-1.61.59-8.47-8.29-10-9.39a5.31,5.31,0,0,0-3.46-1.32c-1.5.14-2.62,1.39-3.63,2.52-2.51,2.82-8.11,10-12.45,9.52-3.68-.45-4.45-7.38-5.38-10.14-2.57-7.71-7.84-11.73-15.94-11-2.08.19-11.36,3.63-12.67,1.16-3.1-5.88,14.21-14.78,17.67-16.07a36.64,36.64,0,0,1,25.59.41,40.08,40.08,0,0,1,18.3,17,29.06,29.06,0,0,1,3,14.69C198.89,150.53,198.54,151.31,198,151.49Z"/><path class="cls-3" d="M179.74,117.07c2.86-.82,1.92-5.57,5.86-11.88a24.52,24.52,0,0,1,6.13-6.91c4.18-3.14,6.73-4,6.81-5.75,0-.75.2-.6-5.24-4.32-3.29-2.24-4.94-3.37-5.41-3.41-3-.25-5.15,2.85-13.19,15.38-5.65,8.81-8,12.71-6.68,14.29.71.85,1.78.18,5.79,1C178,116.4,178.37,117.46,179.74,117.07Z"/></g></g></svg>