<svg xmlns="http://www.w3.org/2000/svg" viewBox="0 0 652.88 234.34"><defs><style>.cls-1{fill:#834428;}.cls-2{fill:#418c41;}.cls-3{fill:#cd73ae;}.cls-4{fill:#3e7f3c;}.cls-5{fill:#a7cf47;}.cls-6{fill:#a8ce40;}.cls-7{fill:#e62d42;}.cls-8{fill:#58a746;}.cls-9{fill:#f47521;}.cls-10{fill:#c13d27;}.cls-11{fill:#e2a805;}.cls-12{fill:#ffc60e;}.cls-13{fill:#b5b5b6;}.cls-14{fill:#c33532;}.cls-15{fill:#b37b4e;}.cls-16{fill:#7f441d;}.cls-17{fill:#3d2211;}.cls-18{fill:#96c147;}.cls-19{fill:#f8991e;}.cls-20{fill:#3d9845;}</style></defs><title>Asset 10</title><g id="Layer_2" data-name="Layer 2"><g id="Layer_1-2" data-name="Layer 1"><path class="cls-1" d="M652.88,226a8.35,8.35,0,0,1-8.3,8.39H8.53a8.39,8.39,0,1,1-.23-16.77H644.58a8.35,8.35,0,0,1,8.3,8.38Z"/><path class="cls-1" d="M8.3,233.57H644.58a8.34,8.34,0,0,0,8.3-8.38H0a8.34,8.34,0,0,0,8.3,8.38Z"/><path class="cls-2" d="M530.11,161.35a4.42,4.42,0,1,1-8.54,2.25l-10.68-40.51a4.42,4.42,0,0,1,8.54-2.26l10.68,40.52Z"/><path class="cls-2" d="M524.09,115a4.42,4.42,0,0,1,2.25,8.54l-10.05,2.65a4.42,4.42,0,1,1-2.25-8.54L524.09,115Z"/><path class="cls-3" d="M513.6,165.39a12.58,12.58,0,1,1-15.37-9,12.58,12.58,0,0,1,15.37,9Z"/><path class="cls-3" d="M513.6,165.39a12.58,12.58,0,0,0-15.37-9l6.41,24.33a12.58,12.58,0,0,0,9-15.37Z"/><path class="cls-3" d="M537.93,159A12.58,12.58,0,1,1,522.56,150,12.59,12.59,0,0,1,537.93,159Z"/><path class="cls-3" d="M537.93,159A12.57,12.57,0,0,0,522.56,150L529,174.34a12.58,12.58,0,0,0,9-15.37Z"/><path class="cls-3" d="M549.11,201.38a12.58,12.58,0,1,1-15.38-9,12.58,12.58,0,0,1,15.38,9Z"/><path class="cls-3" d="M549.11,201.38a12.59,12.59,0,0,0-15.38-9l6.42,24.33a12.58,12.58,0,0,0,9-15.37Z"/><path class="cls-3" d="M562.26,152.56a12.58,12.58,0,1,1-15.37-9,12.58,12.58,0,0,1,15.37,9Z"/><path class="cls-3" d="M562.26,152.56a12.58,12.58,0,0,0-15.37-9l6.41,24.33a12.58,12.58,0,0,0,9-15.37Z"/><path class="cls-3" d="M531.36,183.4a12.58,12.58,0,1,1-15.37-9,12.59,12.59,0,0,1,15.37,9Z"/><path class="cls-3" d="M531.36,183.4a12.58,12.58,0,0,0-15.37-9l6.41,24.33a12.59,12.59,0,0,0,9-15.38Z"/><path class="cls-3" d="M555.69,177a12.58,12.58,0,1,1-15.37-9,12.58,12.58,0,0,1,15.37,9Z"/><path class="cls-3" d="M555.69,177a12.58,12.58,0,0,0-15.37-9l6.41,24.33a12.58,12.58,0,0,0,9-15.37Z"/><path class="cls-2" d="M284.68,50.31a4.77,4.77,0,1,1-9.32,2l-9.5-44.19a4.76,4.76,0,0,1,9.31-2l9.51,44.19Z"/><path class="cls-2" d="M280.47.11a4.77,4.77,0,0,1,2,9.32l-11,2.35a4.76,4.76,0,1,1-2-9.31l11-2.36Z"/><path class="cls-4" d="M319.2,126.69a22.8,22.8,0,0,1-44.57,9.59L258.7,62.23a22.8,22.8,0,0,1,44.57-9.59l15.93,74.05Z"/><path class="cls-4" d="M286.92,152a22.79,22.79,0,0,0,27.53-5.92L291,37a22.74,22.74,0,0,0-27.52,5.92L286.92,152Z"/><path class="cls-5" d="M290.47,48.62a11.12,11.12,0,1,1-13.21-8.54,11.12,11.12,0,0,1,13.21,8.54Z"/><path class="cls-5" d="M295.15,70.37a11.12,11.12,0,1,1-13.22-8.54,11.13,11.13,0,0,1,13.22,8.54Z"/><path class="cls-5" d="M299.83,92.12a11.12,11.12,0,1,1-13.22-8.53,11.13,11.13,0,0,1,13.22,8.53Z"/><path class="cls-5" d="M304.51,113.88a11.13,11.13,0,1,1-13.22-8.54,11.12,11.12,0,0,1,13.22,8.54Z"/><path class="cls-5" d="M309.19,135.63A11.13,11.13,0,1,1,296,127.09a11.13,11.13,0,0,1,13.22,8.54Z"/><path class="cls-5" d="M390,79.8a6.09,6.09,0,0,1-7,6,6.22,6.22,0,0,1-5.2-6.23V44.82a6.22,6.22,0,0,1,5.2-6.23,6.09,6.09,0,0,1,7,6V79.8Z"/><path class="cls-5" d="M390,79.8V44.62a6.09,6.09,0,0,0-6.09-6.09V85.89A6.09,6.09,0,0,0,390,79.8Z"/><path class="cls-6" d="M374,90.26a6.09,6.09,0,0,1-7,6,6.21,6.21,0,0,1-5.2-6.22V55.28a6.22,6.22,0,0,1,5.2-6.23,6.09,6.09,0,0,1,7,6V90.26Z"/><path class="cls-6" d="M374,90.26V55.08A6.09,6.09,0,0,0,367.91,49V96.36a6.09,6.09,0,0,0,6.09-6.1Z"/><path class="cls-5" d="M406,90.26a6.09,6.09,0,0,1-7,6,6.22,6.22,0,0,1-5.2-6.23V55.28a6.23,6.23,0,0,1,5.2-6.23,6.1,6.1,0,0,1,7,6V90.26Z"/><path class="cls-5" d="M406,90.26V55.08A6.09,6.09,0,0,0,399.91,49V96.36a6.09,6.09,0,0,0,6.09-6.1Z"/><path class="cls-7" d="M383.91,68.94s-5.76-4.72-17.53-4.72-26.15,9.67-26.15,30.34c0,11.51,8.41,21.7,21.18,27.6,10.46,4.84,22.5,20,22.5,20V68.94Z"/><path class="cls-7" d="M383.91,68.94s5.75-4.72,17.52-4.72,26.16,9.67,26.16,30.34c0,11.51-8.41,21.7-21.18,27.6-10.46,4.84-22.5,20-22.5,20V68.94Z"/><polygon class="cls-8" points="252.58 72.38 239.19 82.23 218.32 53.84 231.72 43.99 252.58 72.38 252.58 72.38"/><polygon class="cls-8" points="245.88 77.31 252.58 72.38 231.72 43.99 225.02 48.92 245.88 77.31 245.88 77.31"/><path class="cls-8" d="M216.72,14.84c4.59,6.25,3.45,14.9-2.55,19.31A13.78,13.78,0,0,1,195,30.82a13.79,13.79,0,0,1,2.55-19.31c6-4.41,14.6-2.92,19.19,3.33Z"/><path class="cls-8" d="M216.72,14.84c-4.59-6.25-13.19-7.74-19.19-3.33l16.64,22.64c6-4.41,7.14-13.06,2.55-19.31Z"/><path class="cls-8" d="M198.8,34.58a17.88,17.88,0,0,0,15,20.37l2.7-17.67-17.67-2.7Z"/><path class="cls-8" d="M219.17,19.61a17.89,17.89,0,0,0-20.37,15l17.67,2.7,2.7-17.67Z"/><path class="cls-8" d="M230.87,26.7a17.84,17.84,0,0,0-11.7-7.09l-2.7,17.67L234.14,40a17.82,17.82,0,0,0-3.27-13.28Z"/><path class="cls-8" d="M213.77,55a17.89,17.89,0,0,0,20.37-15l-17.67-2.7L213.77,55Z"/><path class="cls-9" d="M302.25,128.65a15,15,0,1,1-24.2,17.78L236.48,89.86a15,15,0,1,1,24.19-17.79l41.58,56.58Z"/><path class="cls-9" d="M302.25,128.65,260.67,72.07a15,15,0,0,0-21-3.2L299,149.64a15,15,0,0,0,3.21-21Z"/><path class="cls-10" d="M256.38,84.57a2.38,2.38,0,0,1-.51,3.33l-5.26,3.87a2.38,2.38,0,1,1-2.82-3.84l5.26-3.87a2.38,2.38,0,0,1,3.33.51Z"/><path class="cls-10" d="M275.64,99.37a2.13,2.13,0,0,1-.45,3l-3.3,2.42a2.12,2.12,0,0,1-2.51-3.42l3.29-2.42a2.12,2.12,0,0,1,3,.45Z"/><path class="cls-10" d="M291.24,133a2.24,2.24,0,0,1-.48,3.13l-5.86,4.31a2.24,2.24,0,1,1-2.65-3.61l5.86-4.31a2.24,2.24,0,0,1,3.13.48Z"/><path class="cls-10" d="M276.25,118.71a2.69,2.69,0,0,1-.57,3.77l-4.54,3.34a2.7,2.7,0,0,1-3.2-4.35l4.54-3.33a2.69,2.69,0,0,1,3.77.57Z"/><path class="cls-10" d="M250.58,99l-4.81,3.53,2.26,3.07,4.81-3.54A1.9,1.9,0,1,0,250.58,99Z"/><path class="cls-10" d="M257.85,78.31l4.81-3.53-2.26-3.07-4.81,3.53a1.91,1.91,0,0,0,2.26,3.07Z"/><path class="cls-10" d="M292,114.65l-3.6,2.65a2.38,2.38,0,1,0,2.82,3.84l3.6-2.65L292,114.65Z"/><polygon class="cls-11" points="472.3 130.82 466.1 108.66 487.41 102.69 493.62 124.85 472.3 130.82 472.3 130.82"/><path class="cls-12" d="M479,217.17l11-3.07A10.61,10.61,0,0,0,497.34,201L451.05,35.67A10.62,10.62,0,0,0,438,28.31l-11,3.07,52,185.79Z"/><path class="cls-12" d="M497.31,138.07a8,8,0,0,1-9.82-5.53l-9.3-33.24A8,8,0,1,1,493.53,95l9.31,33.25a8,8,0,0,1-5.53,9.82Z"/><path class="cls-12" d="M497.34,201,474.2,118.34,453,124.27l26,92.9,11-3.07A10.61,10.61,0,0,0,497.34,201Z"/><path class="cls-11" d="M253,144.05a8,8,0,0,1-8,8H210.55a8.11,8.11,0,0,1-8.08-6.66,8,8,0,0,1,7.89-9.34H245a8,8,0,0,1,8,8Z"/><path class="cls-12" d="M236.86,112.43V207a10.62,10.62,0,0,0,10.62,10.62H419A10.61,10.61,0,0,0,429.62,207V112.43Z"/><path class="cls-11" d="M454.81,131.86a8,8,0,0,1-8,8H412.34a8.13,8.13,0,0,1-8.09-6.66,8,8,0,0,1,7.9-9.34h34.66a8,8,0,0,1,8,8Z"/><path class="cls-12" d="M332.86,217.57H419A10.61,10.61,0,0,0,429.62,207V112.43H332.86V217.57Z"/><path class="cls-2" d="M485.7,197H466.1s-2.52-2.83-1.22-4.86a3.84,3.84,0,0,1,3.47-1.78s-.69-4,2.86-5,5.47,3.56,5.47,3.56a3.31,3.31,0,0,1,4.16-1.05c2.6,1.21,2,4.37,2,4.37a3.07,3.07,0,0,1,3.3,1.3,3,3,0,0,1-.43,3.48Z"/><path class="cls-4" d="M451,185.76a2.62,2.62,0,0,1,3.56,1.31l8.55,18.67v11.83h-5.34V207l-8-17.52a2.85,2.85,0,0,1,1.25-3.73Z"/><path class="cls-2" d="M469.76,197h-27.4s-3.51-4-1.69-6.79a5.34,5.34,0,0,1,4.84-2.49s-1-5.55,4-7,7.64,5,7.64,5a4.64,4.64,0,0,1,5.82-1.47c3.63,1.7,2.79,6.11,2.79,6.11a4.27,4.27,0,0,1,4.6,1.81,4.13,4.13,0,0,1-.6,4.87Z"/><path class="cls-2" d="M473.61,176.94a5.45,5.45,0,1,1-5.45-5.45,5.45,5.45,0,0,1,5.45,5.45Z"/><path class="cls-2" d="M458.41,190.91H481s2.9-3.5,1.4-6a4.3,4.3,0,0,0-4-2.2s.8-4.9-3.3-6.2-6.29,4.4-6.29,4.4a3.71,3.71,0,0,0-4.8-1.3c-3,1.5-2.3,5.4-2.3,5.4a3.4,3.4,0,0,0-3.8,1.6,3.84,3.84,0,0,0,.5,4.3Z"/><path class="cls-2" d="M444,189.07h22.6s2.9-3.5,1.4-6a4.3,4.3,0,0,0-4-2.2s.8-4.89-3.3-6.19-6.3,4.4-6.3,4.4a3.71,3.71,0,0,0-4.8-1.3c-3,1.49-2.3,5.39-2.3,5.39a3.4,3.4,0,0,0-3.8,1.6,3.84,3.84,0,0,0,.5,4.3Z"/><path class="cls-2" d="M476,185.76a2.62,2.62,0,0,0-3.56,1.31l-8.55,18.67v11.83h5.33V207l8-17.52a2.86,2.86,0,0,0-1.24-3.73Z"/><path class="cls-13" d="M586,202.48a7.58,7.58,0,0,1,3.18,10.25l-.14.28a7.6,7.6,0,0,1-10.23,3.27l-21.89-11.41a7.59,7.59,0,0,1-3.19-10.25l.15-.28a7.6,7.6,0,0,1,10.23-3.27L586,202.48Z"/><path class="cls-13" d="M589.19,212.73A7.58,7.58,0,0,0,586,202.48l-21.89-11.41a7.6,7.6,0,0,0-10.23,3.27l-.15.28L589.05,213l.14-.28Z"/><path class="cls-13" d="M553.17,194.34c-3.83,7.36-6.68,17.3,2.38,22,3.89,2,7.24.08,9.27-3.81s5-9.55,5-9.55l-16.62-8.66Z"/><path class="cls-13" d="M553.17,194.34C557,187,563.52,179,572.58,183.67c3.89,2,4.22,5.89,2.19,9.78l-5,9.55-16.62-8.66Z"/><path class="cls-7" d="M204.86,173.33a7.63,7.63,0,0,1-9.39,7.42,7.71,7.71,0,0,1-5.85-7.6V129.53a7.73,7.73,0,0,1,5.85-7.6,7.63,7.63,0,0,1,9.39,7.42v44Z"/><path class="cls-7" d="M204.86,173.33v-44a7.62,7.62,0,0,0-7.62-7.61V181a7.62,7.62,0,0,0,7.62-7.62Z"/><path class="cls-14" d="M237.59,177.11a40.06,40.06,0,1,1-40.06-40.06,40.05,40.05,0,0,1,40.06,40.06Z"/><path class="cls-7" d="M223.22,154.44a28.14,28.14,0,0,0-39.81,0l19.9,19.91,19.91-19.91Z"/><path class="cls-7" d="M223.22,194.26a28.15,28.15,0,0,0,0-39.82l-19.91,19.91,19.91,19.91Z"/><path class="cls-7" d="M203.31,202.5a28.07,28.07,0,0,0,19.91-8.24l-19.91-19.91-19.9,19.91a28.06,28.06,0,0,0,19.9,8.24Z"/><path class="cls-7" d="M183.41,154.44a28.15,28.15,0,0,0,0,39.82l19.9-19.91-19.9-19.91Z"/><path class="cls-1" d="M203,153.51a1.9,1.9,0,0,0-1.91,1.9v4.3a2,2,0,0,0,1.43,1.93,1.9,1.9,0,0,0,2.38-1.84v-4.39a1.9,1.9,0,0,0-1.9-1.9Z"/><path class="cls-1" d="M203,186.81a1.9,1.9,0,0,0-1.91,1.9V193a2,2,0,0,0,1.43,1.93,1.9,1.9,0,0,0,2.38-1.84v-4.39a1.9,1.9,0,0,0-1.9-1.9Z"/><path class="cls-1" d="M188.88,169.27a1.89,1.89,0,1,0,2.67-2.68l-3.07-3.07a1.89,1.89,0,1,0-2.68,2.67l3.08,3.08Z"/><path class="cls-1" d="M195.16,156.84a1.89,1.89,0,0,0-2.67,2.67l3.07,3.07a1.89,1.89,0,0,0,2.68-2.67l-3.08-3.07Z"/><path class="cls-1" d="M211.07,186.11a1.89,1.89,0,1,0-2.68,2.67l3.08,3.08a1.89,1.89,0,1,0,2.67-2.67l-3.07-3.08Z"/><path class="cls-1" d="M217.75,179.43a1.89,1.89,0,0,0-2.67,2.67l3.07,3.08a1.9,1.9,0,0,0,2.68-2.68l-3.08-3.07Z"/><path class="cls-1" d="M211.07,162.58l3.07-3.07a1.89,1.89,0,0,0-2.67-2.67l-3.08,3.07a1.89,1.89,0,0,0,2.68,2.67Z"/><path class="cls-1" d="M215.08,169.27a1.88,1.88,0,0,0,2.67,0l3.08-3.08a1.89,1.89,0,0,0-2.68-2.67l-3.07,3.07a1.9,1.9,0,0,0,0,2.68Z"/><path class="cls-1" d="M191.55,179.43a1.88,1.88,0,0,0-2.67,0l-3.08,3.07a1.9,1.9,0,1,0,2.68,2.68l3.07-3.08a1.88,1.88,0,0,0,0-2.67Z"/><path class="cls-1" d="M195.56,186.11l-3.07,3.08a1.89,1.89,0,1,0,2.67,2.67l3.08-3.08a1.89,1.89,0,1,0-2.68-2.67Z"/><path class="cls-1" d="M222.16,172.62h-4.3a2,2,0,0,0-1.93,1.43,1.9,1.9,0,0,0,1.84,2.38h4.3A2,2,0,0,0,224,175a1.91,1.91,0,0,0-1.84-2.39Z"/><path class="cls-1" d="M190.76,174.53a1.9,1.9,0,0,0-1.9-1.91h-4.3a2,2,0,0,0-1.93,1.43,1.9,1.9,0,0,0,1.84,2.38h4.39a1.9,1.9,0,0,0,1.9-1.9Z"/><path class="cls-15" d="M331.21,101.42A8.27,8.27,0,0,1,320.44,106l-17-6.83a8.27,8.27,0,0,1-4.59-10.77l13.92-34.56a8.27,8.27,0,0,1,10.77-4.58l17,6.82a8.29,8.29,0,0,1,4.59,10.78l-13.92,34.56Z"/><path class="cls-15" d="M340.54,56.08l-8.48-3.41L312,102.59l8.48,3.41a8.27,8.27,0,0,0,10.77-4.58l13.92-34.56a8.29,8.29,0,0,0-4.59-10.78Z"/><path class="cls-16" d="M334.59,75c-.47,1.18-2.48,1.48-4.48.67s-3.24-2.41-2.77-3.59,2.48-1.48,4.49-.67,3.24,2.41,2.76,3.59Z"/><path class="cls-16" d="M321,62.75c-.35.86-1.83,1.08-3.3.49s-2.38-1.77-2-2.64,1.82-1.09,3.29-.5,2.39,1.78,2,2.65Z"/><path class="cls-16" d="M329,91.69c-.34.86-1.82,1.09-3.29.49s-2.39-1.77-2-2.64,1.83-1.09,3.3-.5,2.38,1.78,2,2.65Z"/><path class="cls-16" d="M317.66,96.13c-.35.87-1.83,1.09-3.3.49s-2.38-1.77-2-2.64,1.82-1.09,3.29-.49,2.39,1.77,2,2.64Z"/><path class="cls-16" d="M312.64,85.62c-.45,1.11-2.34,1.39-4.23.63s-3.05-2.27-2.6-3.38,2.34-1.39,4.22-.63,3.05,2.27,2.61,3.38Z"/><path class="cls-16" d="M336.9,64.22c-.37.91-1.91,1.14-3.45.52S331,62.89,331.33,62s1.9-1.13,3.44-.52,2.49,1.86,2.13,2.76Z"/><path class="cls-17" d="M138.58,140.45a3.83,3.83,0,0,1-5.4,3.49,3.7,3.7,0,0,1-2.22-3.46v-19.1a3.7,3.7,0,0,1,2.22-3.46,3.83,3.83,0,0,1,5.4,3.49v19Z"/><path class="cls-18" d="M160.1,119.25s-18.82-1.89-29.49,13.61l7.94,7.94,21.55-21.55Z"/><path class="cls-18" d="M160.1,119.25s1.89,18.82-13.61,29.49l-7.94-7.94,21.55-21.55Z"/><path class="cls-19" d="M115.1,175s-8.87.07-4.27-4.9,11.14-13.65,13-25.56-.06-22,11-22v50.21L115.1,175Z"/><path class="cls-19" d="M154.44,175s8.86.07,4.26-4.9-11.14-13.65-13-25.56.06-22-11-22v50.21L154.44,175Z"/><path class="cls-19" d="M134.77,158.23a29.64,29.64,0,0,0-29.64,29.63h29.64V158.23Z"/><path class="cls-19" d="M164.4,187.86a29.64,29.64,0,0,0-29.63-29.63v29.63Z"/><path class="cls-19" d="M155.72,208.81a29.55,29.55,0,0,0,8.68-20.95H134.77v29.63a29.53,29.53,0,0,0,20.95-8.68Z"/><path class="cls-19" d="M105.13,187.86a29.64,29.64,0,0,0,29.64,29.63V187.86Z"/><path class="cls-4" d="M107.86,153.31C103.42,152,97,153.74,93,157.79s-6.31,9.7-4.48,14.89l19.36-19.37Z"/><path class="cls-4" d="M107.86,153.31c1.27,4.45-.42,10.84-4.47,14.89s-9.7,6.31-14.89,4.48l19.36-19.37Z"/><path class="cls-17" d="M92.86,181.16a2.67,2.67,0,0,1-3.18,2.62A2.76,2.76,0,0,1,87.53,181V168.65a2.74,2.74,0,0,1,2.15-2.73,2.67,2.67,0,0,1,3.18,2.62v12.62Z"/><path class="cls-20" d="M90.58,178.45a20.09,20.09,0,1,0,0,37.26V178.45Z"/><path class="cls-20" d="M90.58,215.71a19.91,19.91,0,0,0,9.72,1.34,20.09,20.09,0,1,0-9.72-38.6v37.26Z"/><path class="cls-8" d="M415.15,172.89a6.1,6.1,0,1,1-12.19-.06V143.57a6.1,6.1,0,1,1,12.19-.06v29.38Z"/><path class="cls-8" d="M423.93,136.57a6.1,6.1,0,1,1-.07,12.19H409.65a6.1,6.1,0,1,1-.06-12.19Z"/><path class="cls-14" d="M403.43,210.26a7.33,7.33,0,0,1-7.35,7.31H381.77a7.28,7.28,0,0,1-7.29-7.28V180.67a7.29,7.29,0,0,1,7.29-7.29h14.38a7.29,7.29,0,0,1,7.28,7.29v29.59Z"/><path class="cls-14" d="M440.29,210.26a7.33,7.33,0,0,1-7.35,7.31H418.62a7.28,7.28,0,0,1-7.28-7.28V180.67a7.29,7.29,0,0,1,7.28-7.29H433a7.29,7.29,0,0,1,7.29,7.29v29.59Z"/><path class="cls-14" d="M425.05,209.12a8.48,8.48,0,0,1-8.51,8.45H400a8.42,8.42,0,0,1-8.43-8.43V175a8.42,8.42,0,0,1,8.43-8.43h16.66a8.42,8.42,0,0,1,8.43,8.43v34.16Z"/><path class="cls-14" d="M408.29,166.53H400a8.42,8.42,0,0,0-8.43,8.43v34.18a8.42,8.42,0,0,0,8.43,8.43h8.33v-51Z"/></g></g></svg>