<svg xmlns="http://www.w3.org/2000/svg" viewBox="0 0 652.88 174.21"><defs><style>.cls-1{fill:#2ecc71;}.cls-2{fill:#ecf0f1;}.cls-3{fill:#c63c22;}.cls-4{fill:#2cbfbf;}.cls-5{fill:#ffad41;}.cls-6{fill:#bd720d;}.cls-7{fill:#bd3c1a;}.cls-8{fill:#ffda44;}.cls-9{fill:#91dc5a;}.cls-10{fill:#f95570;}.cls-11{fill:#a5053a;}.cls-12{fill:#d35400;}.cls-13{fill:#d0d6d8;}.cls-14{fill:#79302a;}.cls-15{fill:#ef9789;}.cls-16{fill:#9b59b6;}.cls-17{fill:#c64751;}.cls-18{fill:#d95459;}.cls-19{fill:#834428;}.cls-20{fill:#feb158;}.cls-21{fill:#e7001e;}.cls-22{fill:#e47500;}.cls-23{fill:#5e4534;}.cls-24{fill:#e2e2e2;}.cls-25{fill:#f4af30;}</style></defs><title>Asset 9</title><g id="Layer_2" data-name="Layer 2"><g id="Layer_1-2" data-name="Layer 1"><path class="cls-1" d="M168.19,56.66c.37-7.48-1.44-30.55-36.91-36.93a2.62,2.62,0,0,0-3.05,2.74c.57,9.69,5,37.75,37.44,36.67A2.62,2.62,0,0,0,168.19,56.66Z"/><path class="cls-1" d="M181.4,43.08c3-5.45,10.07-23.34-14.08-41A2.18,2.18,0,0,0,164,3c-3.11,7.45-10,30,14.58,41.05A2.17,2.17,0,0,0,181.4,43.08Z"/><path class="cls-2" d="M283.86,44.94a34.48,34.48,0,0,0-36-20.07,34.59,34.59,0,0,0-60.26,0,34.49,34.49,0,0,0-36,20.07,34.6,34.6,0,1,0,45.77,45.77,34.76,34.76,0,0,0,15.9-14.54,33.45,33.45,0,0,0,8.94,0,34.74,34.74,0,0,0,15.89,14.54,34.6,34.6,0,1,0,45.77-45.77Z"/><path class="cls-2" d="M284,44.94a34.48,34.48,0,0,0-36-20.07,34.59,34.59,0,0,0-30.13-17.6v69.2a34.71,34.71,0,0,0,4.47-.3,34.79,34.79,0,0,0,15.89,14.54A34.6,34.6,0,1,0,284,44.94Z"/><circle class="cls-1" cx="176.48" cy="50.92" r="3"/><circle class="cls-3" cx="214.73" cy="29.17" r="3"/><circle class="cls-1" cx="204.23" cy="45.67" r="3"/><circle class="cls-1" cx="253.73" cy="45.67" r="3"/><circle class="cls-3" cx="237.23" cy="45.67" r="3"/><circle class="cls-3" cx="171.23" cy="39.67" r="3"/><path class="cls-4" d="M316.73,58.94a99,99,0,0,1-198,0Z"/><path class="cls-4" d="M316.88,58.94h-99v99A99,99,0,0,0,316.88,58.94Z"/><path id="_Path_" data-name="&lt;Path&gt;" class="cls-5" d="M169.33,98.45V89.27a46.39,46.39,0,0,0-46.39-46.39H85A46.39,46.39,0,0,0,38.59,89.27v9.18Z"/><path id="_Path_2" data-name="&lt;Path&gt;" class="cls-5" d="M104,42.88H85A46.39,46.39,0,0,0,38.59,89.27v9.18H104Z"/><circle id="_Path_3" data-name="&lt;Path&gt;" class="cls-6" cx="62.15" cy="75.69" r="4.67"/><circle id="_Path_4" data-name="&lt;Path&gt;" class="cls-6" cx="85.5" cy="61.69" r="4.67"/><circle id="_Path_5" data-name="&lt;Path&gt;" class="cls-6" cx="146.2" cy="75.69" r="4.67"/><circle id="_Path_6" data-name="&lt;Path&gt;" class="cls-6" cx="122.85" cy="61.69" r="4.67"/><circle id="_Path_7" data-name="&lt;Path&gt;" class="cls-6" cx="104.17" cy="75.69" r="4.67"/><path id="_Path_8" data-name="&lt;Path&gt;" class="cls-6" d="M104.17,71a4.67,4.67,0,0,0,0,9.34"/><path id="_Path_9" data-name="&lt;Path&gt;" class="cls-7" d="M155.53,103.58H53.09a14.19,14.19,0,0,0-14.25,13,14,14,0,0,0,14,15.06H155.26a14.18,14.18,0,0,0,14.24-13A14,14,0,0,0,155.53,103.58Z"/><path id="_Path_10" data-name="&lt;Path&gt;" class="cls-7" d="M104,103.58H52.88a14.19,14.19,0,0,0-14.25,13,14,14,0,0,0,14,15.06H104Z"/><path id="_Path_11" data-name="&lt;Path&gt;" class="cls-5" d="M178.88,140.94a14,14,0,0,1-14,14H43.47a14,14,0,0,1-14-14h0a14,14,0,0,1,14-14h121.4a14,14,0,0,1,14,14Z"/><path id="_Path_12" data-name="&lt;Path&gt;" class="cls-5" d="M104,126.93H43.54a14.19,14.19,0,0,0-14.25,13,14,14,0,0,0,14,15.05H104Z"/><polygon id="_Path_13" data-name="&lt;Path&gt;" class="cls-8" points="57.48 108.38 104.17 103.71 150.87 108.38 104.17 141.06 57.48 108.38"/><polygon id="_Path_14" data-name="&lt;Path&gt;" class="cls-8" points="57.27 108.38 103.96 103.71 103.96 141.06 57.27 108.38"/><path id="_Path_15" data-name="&lt;Path&gt;" class="cls-9" d="M178.88,101.25a7,7,0,0,1-7,7H36.47a7,7,0,0,1-7-7h0a7,7,0,0,1,7-7H171.88a7,7,0,0,1,7,7Z"/><path id="_Path_16" data-name="&lt;Path&gt;" class="cls-9" d="M104,94.25H36.44a7.12,7.12,0,0,0-7.14,6.2,7,7,0,0,0,7,7.8H104Z"/><rect class="cls-10" x="303.12" y="11.32" width="53.38" height="13.75"/><rect class="cls-10" x="329.81" y="11.32" width="26.69" height="13.75"/><polygon class="cls-11" points="289.38 158.52 369.44 158.52 369.44 37.6 356.1 34.78 302.72 34.78 289.38 37.6 289.38 158.52"/><polygon class="cls-11" points="369.44 37.6 356.05 34.78 329 34.78 329 158.52 369.44 158.52 369.44 37.6"/><path class="cls-12" d="M313,131.83h33.7A9.84,9.84,0,0,0,356.5,122V88.29a9.84,9.84,0,0,0-9.84-9.84H313a9.85,9.85,0,0,0-9.84,9.84V122A9.85,9.85,0,0,0,313,131.83Z"/><path class="cls-12" d="M346.76,78.45H329.81v53.38h16.85A9.84,9.84,0,0,0,356.5,122V88.29A9.79,9.79,0,0,0,346.76,78.45Z"/><polygon class="cls-13" points="288.39 37.2 370.88 37.2 357.13 23.45 302.13 23.45 288.39 37.2"/><polygon class="cls-13" points="356.78 23.45 329 23.45 329 37.2 370.53 37.2 356.78 23.45"/><path class="cls-14" d="M328.82,32.35a2.85,2.85,0,0,1-2-.83L301,5.66H275.58a2.93,2.93,0,0,1-2.92-2.3A2.84,2.84,0,0,1,275.45,0h27.86l27.51,27.52a2.83,2.83,0,0,1-2,4.83Z"/><path class="cls-15" d="M571.08,120.26c0,13.52-44.32,12.24-99,12.24s-99,1.28-99-12.24S417.41,79,472.08,79,571.08,106.74,571.08,120.26Z"/><path class="cls-15" d="M471.88,79.48v53.46h0c54.71,0,99.08,1.29,99.08-12.24s-44.37-41.25-99.08-41.22Z"/><path class="cls-16" d="M402.08,160.94h140a28,28,0,0,0,28-28h-196A28,28,0,0,0,402.08,160.94Z"/><path class="cls-17" d="M373.08,132.94h198a15.59,15.59,0,0,0,12.83-6.52,4.78,4.78,0,0,0-3.34-7.65c-12.61-1.23-14.91-5.68-31.48-5.68-19.25,0-19.25,6-38.5,6s-19.25-6-38.5-6-19.25,6-38.5,6-19.25-6-38.5-6c-16.6,0-18.89,4.46-31.55,5.69a4.76,4.76,0,0,0-3.24,7.75C362.74,129.45,366.71,132.27,373.08,132.94Z"/><path class="cls-18" d="M499.35,99.28a5.49,5.49,0,0,0,6.78,3.76l1-.29A5.48,5.48,0,0,0,510.89,96l-3.78-13.2c-4.25-.91-8.64-1.68-13.14-2.28Z"/><path class="cls-18" d="M472.38,79c-2.19,0-4.35,0-6.5.14V96.79a6.66,6.66,0,0,0,5.69,6.69A6.5,6.5,0,0,0,478.88,97V79.17Q475.66,79,472.38,79Z"/><path class="cls-16" d="M471.88,132.94v28H542a28,28,0,0,0,28-28H471.88Z"/><path class="cls-17" d="M584.64,126.31a4.77,4.77,0,0,0-3.34-7.63c-12.76-1.24-15.06-5.74-31.78-5.74-19.39,0-19.39,6-38.77,6s-19.39-6.06-38.87-6h0v20h99.8A15.71,15.71,0,0,0,584.64,126.31Z"/><path class="cls-18" d="M437.06,82.78,433.28,96a5.46,5.46,0,0,0,3.75,6.77l1,.29a5.47,5.47,0,0,0,6.77-3.76L450.2,80.5C445.69,81.1,441.31,81.87,437.06,82.78Z"/><path class="cls-19" d="M652.88,165.83a8.34,8.34,0,0,1-8.3,8.38H8.53a8.38,8.38,0,1,1-.23-16.76H644.58a8.34,8.34,0,0,1,8.3,8.38Z"/><path class="cls-20" d="M393.51,158.25,372.2,132.56l-12.35-4.37-2.76-13.85L342,96.15,329.08,91.5l-1.24-12.42c-16,2.1-33.94,20.59-37.11,37Z"/><path class="cls-20" d="M290.66,157.67l102.85.58-99.45-47.06C287.41,125.23,284.62,143.85,290.66,157.67Z"/><path class="cls-21" d="M357.78,135.75a12.06,12.06,0,0,0,14.42-3.19l-15.11-18.22a12,12,0,0,0,.69,21.41Z"/><path class="cls-21" d="M326.85,119.54a14.23,14.23,0,0,0-13.57.75l8.37,10.63,13.22-.42A14.23,14.23,0,0,0,326.85,119.54Z"/><path class="cls-21" d="M314.65,145.32a14.25,14.25,0,0,0,20.22-14.82l-21.59-10.21a14.25,14.25,0,0,0,1.37,25Z"/><path class="cls-21" d="M313.74,93.32A15.81,15.81,0,0,0,342,96.15L327.84,79.08l-11.92,1.59Z"/><path class="cls-22" d="M300.55,114.26a102.6,102.6,0,0,1,27.29-35.18l-12.45-15a121.75,121.75,0,0,0-32.45,41.85l5.51,11.27Z"/><path class="cls-22" d="M271.16,157.56l19.5.11a102.48,102.48,0,0,1,9.89-43.41l-17.61-8.33A121.79,121.79,0,0,0,271.16,157.56Z"/><path class="cls-14" d="M576.09,157.94h54.13a11,11,0,0,0,10.92-9.51L652.2,61.12H554.11l11.06,87.31A11,11,0,0,0,576.09,157.94Z"/><path class="cls-23" d="M603.16,76.39a3.07,3.07,0,0,1-2.16-.88L552,27.16a3,3,0,0,1,0-4.25,3.07,3.07,0,0,1,4.3,0l49,48.35a3,3,0,0,1,0,4.25A3.06,3.06,0,0,1,603.16,76.39Z"/><path class="cls-23" d="M615.4,76.39a3,3,0,0,1-2.61-1.46L576.06,14.5a3,3,0,0,1,1-4.13,3.07,3.07,0,0,1,4.18,1L618,71.84A3,3,0,0,1,617,76,3.1,3.1,0,0,1,615.4,76.39Z"/><path class="cls-14" d="M603.72,61.12v96.82h26.62a11,11,0,0,0,10.92-9.51l11-87.31Z"/><polygon class="cls-24" points="565.95 95.84 640.36 95.84 652.76 59.12 553.55 59.12 565.95 95.84"/><ellipse class="cls-25" cx="603.16" cy="121.73" rx="18.37" ry="12.09"/><polygon class="cls-24" points="652.88 59.12 603.73 59.12 603.73 95.84 640.48 95.84 652.88 59.12"/><path class="cls-25" d="M621.64,121.73c0-6.57-8-11.92-17.92-12.08v24.16C613.66,133.65,621.64,128.31,621.64,121.73Z"/></g></g></svg>